<svg width="30" height="30" viewBox="0 0 30 30" fill="none" xmlns="http://www.w3.org/2000/svg">
<path d="M27.4995 17.9442C27.4995 17.0167 26.7945 16.2617 25.9245 16.2617H13.3445C12.4745 16.2617 11.7695 17.0167 11.7695 17.9442C11.7695 18.8717 12.4733 19.6267 13.3445 19.6267H25.9245C26.7945 19.628 27.4995 18.873 27.4995 17.9442Z" fill="#969696"/>
<path d="M4.3525 22.733L9.74375 28.1843C10.96 29.408 12.6412 29.9993 14.4975 29.9993C16.3537 29.9993 18.035 29.3593 19.2537 28.1318L22.4887 24.8355C23.1262 24.193 23.1037 23.1293 22.44 22.4605C21.7762 21.7918 20.7213 21.7693 20.085 22.4118L16.74 25.6705C16.1625 26.2543 15.3625 26.498 14.4788 26.498C13.595 26.498 12.7962 26.2543 12.2162 25.6705L6.84375 20.2168C6.265 19.633 5.97375 18.7793 5.97375 17.888C5.97375 16.9968 6.265 16.1918 6.84375 15.608L12.2 10.133C12.7788 9.54928 13.595 9.32678 14.4775 9.32678C15.36 9.32678 16.16 9.57053 16.7387 10.1543L20.0837 13.4118C20.7212 14.0555 21.7762 14.033 22.44 13.3643C23.1037 12.6943 23.1262 11.6305 22.4887 10.988L19.2537 7.69303C18.4425 6.88553 17.415 6.29803 16.2637 6.03053L16.2213 6.02178L19.28 2.89303C19.92 2.25053 19.8975 1.18553 19.2338 0.516783C18.57 -0.151967 17.5137 -0.173217 16.875 0.469283L4.3525 13.0943C3.13625 14.3218 2.5 16.0155 2.5 17.888C2.5 19.7605 3.13625 21.508 4.3525 22.733Z" fill="#969696"/>
</svg>
